<?xml version="1.0" standalone="no"?>
<!DOCTYPE svg PUBLIC "-//W3C//DTD SVG 20010904//EN"
 "http://www.w3.org/TR/2001/REC-SVG-20010904/DTD/svg10.dtd">
<svg version="1.0" xmlns="http://www.w3.org/2000/svg"
 width="5184.000000pt" height="3456.000000pt" viewBox="0 0 5184.000000 3456.000000"
 preserveAspectRatio="xMidYMid meet">

<g transform="translate(0.000000,3456.000000) scale(0.100000,-0.100000)"
fill="#ffffff" stroke="none">
<path d="M11730 20661 c-74 -8 -175 -71 -191 -119 -9 -28 -8 -39 6 -65 26 -48
151 -126 204 -127 9 0 25 -7 36 -15 19 -15 19 -15 -1 -36 -12 -11 -39 -23 -60
-26 -34 -4 -48 1 -102 38 -35 23 -78 45 -95 49 -44 9 -105 -4 -127 -26 -23
-23 -37 -74 -21 -74 16 0 13 -26 -4 -40 -37 -31 -59 -114 -38 -146 10 -17 13
-35 8 -64 -5 -32 -3 -41 9 -46 9 -3 16 -13 16 -21 0 -7 12 -24 27 -37 26 -22
26 -24 14 -68 -7 -25 -10 -56 -6 -68 16 -50 69 -111 133 -153 37 -24 87 -61
111 -81 24 -20 63 -41 87 -47 25 -6 47 -15 50 -20 3 -5 15 -9 28 -9 12 0 32
-9 44 -20 12 -11 24 -20 27 -20 4 0 25 -13 48 -29 23 -16 62 -35 87 -41 25 -7
47 -15 50 -19 10 -13 145 -79 199 -96 29 -10 65 -24 80 -31 14 -8 38 -14 54
-14 15 0 27 -5 27 -10 0 -18 109 -117 143 -130 146 -55 173 -78 183 -153 4
-35 87 -206 116 -240 11 -12 27 -31 37 -43 10 -11 21 -37 24 -57 3 -21 15 -50
27 -66 11 -16 25 -54 30 -83 29 -162 40 -250 41 -313 0 -38 5 -83 10 -100 10
-32 12 -33 164 -102 55 -25 116 -52 135 -61 91 -41 266 -175 303 -232 15 -22
27 -42 27 -45 0 -4 8 -25 19 -48 10 -23 31 -76 46 -117 15 -41 32 -81 38 -88
7 -9 7 -16 0 -23 -7 -7 -14 -1 -21 19 -7 22 -19 32 -41 37 -32 7 -52 26 -34
32 6 2 9 13 6 23 -4 16 -14 20 -43 20 -22 0 -40 -5 -43 -12 -3 -10 -10 -8 -25
5 -19 18 -20 18 -33 0 -8 -11 -30 -25 -49 -33 -19 -7 -42 -19 -51 -27 -8 -7
-22 -13 -31 -13 -21 0 -58 -43 -58 -67 0 -19 -4 -21 -39 -16 -29 4 -44 1 -56
-11 -15 -15 -33 -17 -145 -20 -19 -1 -39 -4 -45 -7 -5 -3 -30 -7 -55 -8 -54
-3 -60 -7 -60 -32 0 -10 -4 -19 -10 -19 -5 0 -10 5 -10 10 0 19 -38 10 -69
-17 -33 -29 -41 -69 -19 -91 7 -7 40 -12 77 -12 37 0 86 -6 110 -14 29 -8 58
-10 85 -5 23 5 57 8 77 9 36 0 37 -1 43 -45 4 -24 11 -47 17 -50 5 -4 9 -22 9
-41 0 -19 4 -34 9 -34 5 0 12 -24 14 -52 9 -81 18 -128 28 -134 5 -3 9 -30 9
-60 0 -31 6 -64 14 -77 9 -12 24 -92 35 -182 16 -131 19 -197 15 -360 -3 -110
-10 -213 -15 -230 -20 -63 -39 -349 -40 -590 0 -236 7 -332 31 -443 30 -135
63 -260 81 -311 39 -109 59 -235 58 -364 -1 -67 4 -169 10 -227 12 -122 36
-699 36 -875 l0 -120 -44 -85 c-24 -47 -53 -103 -66 -125 -15 -28 -19 -44 -12
-53 7 -9 6 -11 -7 -6 -15 6 -22 -10 -17 -38 0 -5 -3 -8 -9 -8 -10 0 -51 -74
-48 -87 2 -12 -23 -96 -33 -109 -4 -5 -24 -57 -44 -115 -48 -141 -74 -347 -54
-429 8 -30 14 -64 14 -75 1 -19 21 -92 51 -183 26 -79 10 -170 -40 -232 -7 -8
-18 -34 -25 -57 -6 -24 -25 -72 -41 -108 -22 -48 -34 -65 -49 -65 -11 0 -22 9
-26 20 -4 11 -18 34 -32 50 -20 25 -32 30 -68 30 -25 0 -50 -6 -59 -15 -8 -8
-17 -15 -20 -15 -3 0 -6 29 -6 65 0 54 -4 68 -21 83 -11 9 -27 29 -35 44 -7
14 -31 46 -51 71 -21 24 -46 57 -56 73 -41 68 -146 194 -222 266 -22 21 -35
38 -30 38 6 0 -21 19 -60 41 -38 22 -79 49 -90 59 -11 10 -39 21 -63 25 -24 4
-78 23 -120 43 l-77 35 -165 1 c-169 0 -193 -3 -340 -54 -33 -11 -147 -64
-215 -99 -121 -62 -274 -249 -330 -402 -14 -39 -25 -79 -25 -90 0 -10 -4 -19
-9 -19 -5 0 -13 -25 -17 -56 -4 -33 -12 -58 -20 -61 -8 -3 -14 -20 -14 -39 0
-20 -5 -34 -12 -34 -10 0 -10 -2 0 -9 10 -6 11 -26 6 -83 -6 -66 -3 -85 21
-159 15 -46 30 -86 34 -89 9 -7 31 -73 31 -93 0 -9 4 -17 9 -17 5 0 19 -30 31
-67 46 -140 94 -248 121 -276 16 -16 29 -32 29 -36 0 -4 21 -28 46 -54 45 -47
45 -52 -1 -59 -11 -2 -29 -19 -39 -39 -17 -32 -18 -40 -6 -69 16 -39 117 -144
185 -193 28 -19 59 -45 70 -57 11 -13 37 -33 57 -46 20 -13 39 -32 43 -44 16
-49 127 -68 165 -28 11 12 20 30 20 40 0 29 15 21 45 -24 41 -61 241 -258 305
-301 56 -36 148 -84 276 -142 40 -18 95 -51 124 -74 28 -23 56 -41 61 -41 13
0 11 -153 -2 -187 -29 -75 -18 -365 16 -448 24 -57 24 -245 0 -405 -17 -109
-17 -124 -15 -549 2 -240 5 -320 15 -335 7 -12 23 -54 35 -94 12 -39 26 -75
31 -78 5 -3 9 -16 9 -30 0 -14 7 -32 15 -40 8 -9 18 -27 21 -42 7 -28 72 -153
84 -162 4 -3 14 -19 23 -36 9 -17 28 -44 44 -61 15 -17 35 -41 43 -53 8 -12
20 -28 25 -34 16 -18 85 -133 85 -143 0 -4 7 -21 15 -37 15 -28 23 -67 50
-238 8 -48 17 -212 20 -365 4 -153 11 -294 16 -313 5 -19 9 -56 9 -82 0 -49
31 -222 56 -318 8 -30 22 -118 30 -194 14 -131 14 -150 -6 -328 -20 -178 -21
-208 -10 -545 6 -196 13 -360 16 -364 3 -5 10 -36 15 -70 5 -34 16 -74 24 -90
8 -15 15 -44 15 -62 0 -19 9 -63 20 -98 27 -88 39 -234 43 -504 3 -168 9 -252
21 -310 17 -79 29 -180 46 -365 22 -255 -84 -364 -380 -390 -110 -10 -254 -36
-284 -52 -12 -6 -44 -29 -73 -50 -48 -37 -59 -40 -150 -50 -54 -6 -138 -10
-188 -10 -99 0 -159 -18 -153 -47 4 -16 -51 -50 -80 -51 -7 0 -23 -7 -36 -15
-25 -16 -46 -22 -111 -32 -22 -3 -51 -14 -64 -24 -13 -11 -28 -19 -33 -19 -6
0 -27 -13 -48 -30 -21 -16 -43 -30 -49 -30 -6 0 -11 -4 -11 -10 0 -5 22 -10
49 -10 59 0 81 -7 81 -26 0 -9 12 -14 33 -15 17 0 69 -2 114 -4 90 -3 180 10
202 28 8 7 46 12 85 12 l71 0 3 33 c2 17 8 32 14 32 6 0 40 -14 76 -31 50 -23
73 -29 96 -24 60 14 229 17 236 5 11 -19 330 -2 330 17 0 10 10 13 33 11 19
-2 31 -8 30 -16 -4 -18 27 -15 70 8 20 11 43 20 51 20 8 0 18 10 21 21 6 18
12 20 46 15 21 -3 53 -15 71 -26 18 -11 40 -23 48 -27 8 -3 18 -11 22 -17 16
-23 199 -3 279 31 l37 15 4 81 c4 61 13 102 37 159 27 66 33 98 42 215 13 183
22 258 57 513 50 356 54 400 58 536 2 82 11 166 24 225 11 52 22 120 25 153 3
32 14 129 25 215 11 86 24 221 30 301 6 80 14 170 18 200 5 30 4 129 0 220 -5
99 -3 241 3 356 l11 191 -38 104 c-43 116 -42 110 -34 449 2 96 1 360 -3 585
-6 332 -11 432 -26 524 -11 62 -24 118 -30 124 -6 6 -11 25 -11 42 0 38 -62
287 -88 351 -10 27 -29 83 -42 124 -12 41 -29 86 -37 99 -17 27 -29 135 -20
173 4 14 14 34 24 45 47 55 53 64 53 72 0 5 16 16 35 25 19 9 37 21 40 26 13
21 119 41 270 50 310 19 482 34 810 70 252 27 753 138 1040 231 50 15 116 36
148 45 33 10 65 23 72 31 8 7 19 13 25 13 16 0 293 120 310 135 8 7 25 16 38
19 12 4 22 11 22 16 0 7 78 41 126 55 12 3 31 13 42 23 34 29 55 41 119 72 35
16 69 34 75 40 7 5 33 28 58 50 25 22 48 40 52 40 4 0 42 34 85 75 42 41 80
75 84 75 5 0 19 10 31 23 13 12 39 31 58 41 19 11 47 31 61 45 15 14 37 33 49
41 12 8 30 22 40 30 10 8 28 22 40 30 12 8 28 20 34 26 6 6 22 17 36 24 13 7
29 17 34 21 6 5 27 22 46 39 19 16 52 37 73 46 20 9 37 20 37 24 0 4 18 15 40
25 22 10 40 21 40 25 0 5 18 15 41 24 23 9 69 35 103 58 76 52 161 98 181 98
8 0 15 4 15 9 0 5 24 19 53 31 73 31 127 69 127 91 0 11 4 19 9 19 5 0 12 8
15 18 8 26 69 52 119 52 84 1 174 20 270 59 128 53 155 68 191 109 50 57 75
81 101 94 80 41 147 62 232 71 90 9 92 10 102 39 10 28 45 68 60 68 4 0 15 15
26 32 10 18 28 42 40 54 11 12 27 31 35 44 8 12 20 28 26 34 27 29 54 98 54
140 0 26 6 51 15 60 8 8 15 24 15 36 0 12 20 61 45 109 57 111 64 157 36 235
-11 33 -25 62 -30 65 -4 3 -25 40 -45 81 -21 41 -41 77 -45 80 -4 3 -20 32
-35 65 -25 55 -27 67 -21 135 4 41 14 104 22 140 8 36 18 106 22 155 8 95 16
125 35 126 6 0 26 23 45 51 l34 52 -9 155 c-4 86 -9 179 -10 206 -2 28 -11 97
-20 155 -19 109 -21 184 -13 505 4 172 2 194 -14 219 -26 39 -50 66 -59 66
-15 0 -48 40 -48 58 0 11 -9 45 -20 78 -11 32 -20 70 -20 82 0 13 -7 38 -15
55 -14 30 -38 110 -51 167 -3 14 -16 57 -28 95 -13 39 -26 84 -30 100 -7 31
-100 276 -116 307 -21 38 -85 227 -95 278 -7 36 -10 48 -44 160 -31 101 -61
255 -61 310 0 32 -11 77 -31 127 -31 80 -132 243 -150 243 -6 0 -7 5 -3 12 4
7 3 8 -5 4 -9 -6 -9 -12 1 -24 7 -10 0 -6 -15 7 -25 23 -33 19 -28 -12 1 -5
-3 -6 -7 -3 -5 3 -7 18 -4 32 4 20 2 25 -8 19 -9 -5 -11 -4 -6 4 4 6 12 9 17
6 19 -12 8 21 -21 64 -17 25 -33 56 -36 70 -3 15 -12 40 -19 56 -12 27 -24 43
-65 92 -5 7 -10 16 -10 21 0 4 -19 28 -42 53 -58 62 -77 86 -91 117 -6 15 -22
40 -34 55 -13 16 -26 46 -29 68 -4 24 -12 39 -21 39 -7 0 -16 14 -20 30 -3 17
-15 37 -27 45 -11 8 -17 15 -14 15 14 0 -23 70 -52 100 -16 17 -30 36 -30 42
0 23 -34 88 -47 88 -7 0 -13 7 -13 15 0 8 -7 15 -15 15 -8 0 -15 9 -15 20 0
11 -7 20 -15 20 -8 0 -15 7 -15 15 0 8 -7 15 -15 15 -8 0 -15 9 -15 20 0 11
-7 20 -15 20 -8 0 -15 9 -15 20 0 11 -4 20 -10 20 -5 0 -10 9 -10 20 0 13 -7
20 -20 20 -11 0 -20 7 -20 15 0 8 -7 15 -15 15 -8 0 -15 9 -15 20 0 11 -4 20
-10 20 -5 0 -10 9 -10 20 0 10 -6 23 -14 27 -8 4 -14 12 -14 18 0 5 -14 16
-31 25 -17 8 -31 23 -31 33 0 10 -8 17 -20 17 -11 0 -20 5 -20 10 0 6 -9 10
-20 10 -11 0 -20 5 -20 10 0 6 -9 10 -20 10 -13 0 -20 7 -20 20 0 13 -7 20
-20 20 -11 0 -20 7 -20 15 0 8 -7 15 -15 15 -8 0 -15 9 -15 20 0 11 -7 20 -15
20 -9 0 -18 7 -21 15 -4 8 -12 15 -20 15 -8 0 -14 9 -14 20 0 11 -6 20 -12 21
-7 0 -26 3 -41 5 -19 3 -26 1 -22 -6 3 -5 14 -10 23 -10 15 0 15 -2 2 -10 -12
-8 -11 -10 7 -10 27 0 39 -18 23 -33 -10 -9 -12 -8 -7 4 4 13 -3 18 -34 23
-35 6 -44 14 -40 38 0 4 -8 10 -19 13 -11 4 -20 10 -20 14 0 17 14 19 40 6 15
-8 30 -11 34 -8 10 10 7 43 -4 43 -6 0 -48 38 -95 85 -46 47 -89 85 -94 85 -6
0 -11 4 -11 8 0 5 -13 22 -30 38 -16 16 -30 35 -30 42 0 6 -9 12 -20 12 -11 0
-20 7 -20 15 0 8 -9 15 -20 15 -11 0 -20 7 -20 15 0 8 -7 15 -15 15 -8 0 -15
7 -15 15 0 8 -9 15 -20 15 -13 0 -20 7 -20 20 0 11 -7 20 -15 20 -8 0 -15 7
-15 15 0 8 -4 15 -9 15 -5 0 -29 20 -54 45 -26 25 -50 45 -54 45 -11 1 -38 40
-47 66 -4 13 -18 24 -35 27 -15 3 -39 17 -52 31 -13 14 -30 26 -36 26 -7 0
-13 7 -13 15 0 8 -3 15 -7 15 -5 0 -26 16 -47 35 -22 19 -37 35 -33 35 4 0 -3
11 -15 25 -12 14 -28 23 -35 21 -16 -7 -47 39 -40 58 6 15 -16 40 -26 30 -3
-3 -4 15 -3 41 2 37 -2 50 -22 70 -13 13 -29 22 -36 19 -8 -3 -16 4 -19 15 -3
12 -1 19 4 15 22 -13 6 16 -27 50 -21 22 -32 41 -28 49 5 7 0 5 -11 -3 -17
-14 -18 -14 -5 10 11 20 11 25 -1 29 -8 2 -48 39 -89 80 -62 64 -78 87 -94
136 -10 33 -31 76 -47 96 -16 20 -29 40 -29 44 0 12 -161 195 -171 195 -6 0
-7 5 -4 10 8 13 -5 13 -25 0 -10 -6 -11 -10 -2 -10 6 0 12 -9 12 -20 0 -11 -4
-20 -10 -20 -15 0 -50 33 -44 42 3 4 -2 8 -10 8 -15 0 -12 29 5 40 10 7 0 50
-11 50 -4 0 -17 9 -30 20 -13 11 -20 20 -16 20 4 0 -2 10 -13 22 -11 11 -18
25 -15 30 3 4 0 8 -5 8 -6 0 -11 5 -11 10 0 17 29 11 47 -9 15 -19 17 -19 29
-3 7 10 9 23 4 32 -4 8 -15 53 -25 100 -13 66 -24 94 -49 125 -42 50 -82 129
-97 188 -14 56 -83 126 -158 161 -56 25 -79 46 -74 63 3 7 -10 21 -29 32 -18
11 -42 28 -53 39 -36 35 -89 56 -64 25 30 -35 -28 6 -72 52 -47 49 -76 56
-150 34 -28 -9 -42 -9 -52 -1 -12 10 -82 8 -114 -3 -7 -2 -13 -14 -13 -26 0
-12 -2 -20 -5 -17 -3 3 -42 -2 -87 -12 -126 -28 -165 -76 -175 -213 -5 -79 -4
-84 27 -142 18 -33 45 -74 60 -91 52 -60 100 -141 121 -205 45 -139 85 -194
284 -394 61 -60 131 -139 156 -175 49 -70 128 -257 149 -355 7 -33 21 -94 32
-135 11 -41 24 -93 29 -115 6 -22 9 -69 6 -105 -5 -80 8 -161 34 -203 10 -18
19 -47 19 -65 0 -27 12 -45 73 -106 95 -96 144 -117 256 -111 46 3 103 12 127
20 58 19 94 19 94 0 0 -8 6 -15 14 -15 8 0 20 -17 27 -37 15 -46 48 -103 60
-103 5 0 9 -9 9 -20 0 -11 7 -20 15 -20 8 0 15 -9 15 -20 0 -11 5 -20 10 -20
6 0 10 -7 10 -16 0 -8 7 -22 15 -30 8 -9 15 -26 15 -40 0 -13 5 -24 10 -24 6
0 10 -7 10 -15 0 -9 7 -18 15 -21 8 -4 15 -15 15 -25 0 -10 7 -19 15 -19 8 0
15 -9 15 -20 0 -11 5 -20 10 -20 6 0 10 -11 10 -25 0 -14 5 -25 10 -25 6 0 10
-9 10 -20 0 -11 5 -20 10 -20 6 0 10 -9 10 -20 0 -11 5 -20 10 -20 6 0 10 -9
10 -19 0 -10 7 -21 15 -25 8 -3 15 -15 15 -26 0 -11 5 -20 10 -20 6 0 10 -11
10 -25 0 -14 5 -25 10 -25 6 0 10 -9 10 -20 0 -11 4 -20 9 -20 5 0 12 -20 15
-45 4 -24 11 -47 17 -50 5 -4 9 -15 9 -26 0 -10 5 -19 10 -19 6 0 10 -9 10
-20 0 -11 4 -20 9 -20 5 0 11 -19 15 -42 4 -23 12 -46 18 -49 6 -4 13 -13 14
-21 18 -79 28 -115 34 -123 5 -5 11 -27 15 -47 4 -21 11 -38 16 -38 5 0 9 -9
9 -19 0 -11 5 -23 10 -26 6 -3 10 -21 10 -38 0 -18 9 -49 20 -70 11 -20 20
-47 20 -60 0 -12 9 -29 20 -37 11 -8 20 -22 20 -32 0 -10 7 -18 15 -18 8 0 15
-9 15 -19 0 -11 5 -23 10 -26 6 -3 10 -13 10 -22 0 -20 50 -135 65 -148 6 -5
19 -26 28 -45 22 -45 41 -70 54 -70 6 0 13 -9 16 -20 3 -11 12 -20 21 -20 9 0
16 -7 16 -15 0 -8 6 -15 14 -15 8 0 16 -7 20 -15 3 -8 12 -15 21 -15 8 0 15
-7 15 -15 0 -8 9 -15 20 -15 12 0 20 -7 20 -16 0 -8 6 -22 13 -29 28 -33 37
-45 37 -53 0 -5 12 -15 28 -23 15 -8 32 -18 39 -24 7 -5 19 -16 27 -22 8 -7
22 -13 31 -13 8 0 15 -7 15 -15 0 -8 9 -15 20 -15 11 0 20 -4 20 -10 0 -5 11
-10 25 -10 14 0 25 -4 25 -10 0 -5 9 -10 19 -10 11 0 22 -9 26 -19 3 -11 15
-23 26 -26 10 -4 19 -11 19 -16 0 -5 9 -9 20 -9 11 0 20 -4 20 -10 0 -5 6 -10
14 -10 7 0 29 -15 48 -33 31 -29 37 -44 51 -117 19 -102 29 -293 33 -645 2
-179 8 -291 19 -360 25 -153 28 -233 16 -330 -11 -82 -44 -185 -60 -185 -7 0
-35 -52 -44 -82 -10 -29 -43 -9 -124 73 -42 43 -84 81 -93 84 -8 3 -26 22 -40
42 -14 21 -62 76 -107 122 -46 46 -83 87 -83 91 0 4 -18 15 -41 25 -36 17
-167 147 -193 193 -9 16 -54 69 -71 84 -53 45 -82 75 -146 152 -78 95 -175
196 -187 196 -4 0 -15 14 -24 30 -9 16 -30 38 -46 48 -17 9 -51 43 -76 75 -26
31 -53 57 -61 57 -7 0 -15 4 -17 9 -6 17 -83 106 -174 201 -50 52 -95 102
-100 111 -5 8 -30 30 -56 49 -27 18 -48 38 -48 43 0 5 -28 35 -62 68 -71 67
-63 59 -120 119 -23 25 -42 49 -42 53 -1 4 -5 11 -11 15 -5 4 -27 27 -49 52
-21 25 -78 88 -126 140 -48 52 -118 129 -155 170 -37 41 -86 93 -109 115 -58
57 -231 245 -327 355 -42 49 -97 136 -149 238 -29 57 -64 115 -77 128 -13 13
-21 24 -18 24 3 0 -21 27 -55 60 -34 33 -58 60 -55 60 4 0 -17 24 -47 53 -29
29 -62 63 -74 77 -25 30 -86 80 -97 80 -5 0 -6 4 -2 9 11 18 -16 23 -40 7 -14
-9 -26 -14 -26 -11 -1 3 -2 10 -3 17 -2 18 -26 22 -26 4 0 -20 -26 -21 -33 -2
-4 10 -1 13 7 10 7 -3 16 1 19 8 3 10 -3 14 -22 13 -14 0 -25 -6 -24 -12 1 -6
-27 -22 -62 -35 -47 -16 -65 -28 -65 -40 0 -24 -21 -23 -27 0 -3 14 -15 19
-50 19 -55 1 -94 19 -86 40 5 12 1 14 -14 9 -13 -4 -27 -1 -36 9 -15 15 -57
17 -67 3 -12 -15 -60 5 -66 28 -3 13 -14 26 -24 29 -10 3 -21 13 -24 23 -4 9
-13 28 -21 42 -18 30 -19 72 -3 88 18 18 38 15 31 -4 -5 -14 -3 -15 16 -4 27
14 28 13 35 -25 7 -40 32 -58 60 -43 11 7 28 12 36 13 8 1 23 2 33 3 10 1 17
8 15 14 -8 24 15 36 52 26 19 -6 39 -14 44 -18 5 -5 18 -4 29 1 12 7 17 7 13
1 -3 -5 1 -13 10 -16 24 -9 31 -7 14 5 -11 8 -7 9 19 5 45 -8 61 -23 61 -57 0
-16 6 -30 13 -30 6 -1 22 -3 34 -4 13 -1 29 -8 37 -14 35 -29 30 -11 -95 354
-12 33 -24 65 -29 70 -4 6 -11 21 -15 35 -14 49 -149 324 -171 350 -23 28
-125 201 -129 220 -6 34 -62 129 -86 147 -8 6 -24 31 -34 55 -11 24 -22 45
-26 48 -3 3 -11 21 -18 41 -6 20 -29 62 -50 95 -21 32 -62 104 -90 159 -29 55
-59 111 -66 125 -26 50 -65 139 -65 151 0 6 -16 37 -35 69 -19 32 -35 62 -35
67 0 5 -24 63 -54 128 -60 135 -69 171 -87 340 -8 87 -18 133 -35 165 -12 25
-28 81 -34 124 -12 82 -27 126 -42 126 -4 0 -7 3 -7 8 4 24 -3 34 -20 29 -12
-3 -22 1 -26 11 -4 12 -8 13 -17 4 -17 -17 -51 -15 -45 2 3 7 -10 35 -29 61
-31 45 -44 56 -101 86 -13 7 -23 18 -23 24 0 6 -18 20 -40 31 -22 10 -40 23
-40 27 0 4 -12 6 -27 5 -23 -2 -29 1 -31 20 -3 17 -8 21 -22 17 -12 -4 -24 2
-37 18 -10 13 -25 22 -33 19 -9 -2 -7 2 5 12 20 15 20 15 -2 16 -12 0 -23 -5
-25 -11 -2 -7 -10 7 -18 30 -9 28 -18 40 -27 36 -10 -3 -13 1 -9 13 5 13 -2
23 -21 33 -16 7 -38 23 -51 34 -25 22 -141 137 -158 157 -6 7 -20 21 -30 30
-35 32 -51 53 -107 139 -60 91 -115 149 -144 149 -34 1 -73 25 -137 85 -36 33
-89 80 -120 105 -30 25 -68 61 -83 82 -47 61 -97 79 -193 69z m1602 -1446 c20
-27 9 -42 -32 -45 -57 -5 -63 -2 -58 30 2 16 1 31 -4 32 -4 2 11 4 35 5 33 1
46 -4 59 -22z m2273 -192 c24 -11 35 -23 34 -37 0 -12 -3 -15 -6 -8 -2 6 -12
12 -21 12 -9 0 -28 12 -41 25 -27 29 -16 32 34 8z m65 -69 c0 -8 -4 -14 -10
-14 -5 0 -10 9 -10 21 0 11 5 17 10 14 6 -3 10 -13 10 -21z m-240 -23 c0 -5
15 -16 33 -24 18 -9 47 -32 64 -50 28 -31 30 -37 18 -54 -13 -16 -16 -16 -25
-3 -5 8 -10 11 -10 6 0 -6 -5 -5 -12 2 -7 7 -20 12 -29 12 -18 0 -69 60 -69
82 0 8 -5 19 -12 26 -9 9 -6 12 15 12 15 0 27 -4 27 -9z m420 -100 c5 -8 16
-11 31 -6 19 5 21 4 9 -4 -13 -9 -12 -11 3 -11 10 0 20 -8 24 -17 3 -10 22
-34 42 -53 20 -20 47 -51 60 -69 21 -30 22 -33 5 -27 -10 5 -27 11 -37 14 -15
4 -16 7 -5 13 8 6 0 9 -24 9 -26 0 -45 7 -63 26 -14 14 -30 22 -35 19 -6 -3
-7 1 -4 9 4 9 1 16 -6 16 -8 0 -9 -10 -5 -30 8 -35 -9 -41 -26 -9 -8 16 -8 27
1 43 9 17 8 28 -4 51 -9 17 -16 33 -16 37 0 12 41 3 50 -11z m4 -240 c19 -21
11 -55 -11 -47 -8 3 -17 6 -19 6 -2 0 -4 7 -4 15 0 8 -4 15 -10 15 -5 0 -7 7
-4 15 8 20 27 19 48 -4z m206 -111 c0 -5 -2 -10 -4 -10 -2 0 -12 -3 -20 -6
-12 -5 -15 -2 -10 10 7 17 34 22 34 6z m194 -136 c3 -8 2 -12 -4 -9 -6 3 -10
10 -10 16 0 14 7 11 14 -7z m361 -502 c-3 -3 -11 0 -18 7 -9 10 -8 11 6 5 10
-3 15 -9 12 -12z m383 -620 c3 -9 -3 -12 -14 -10 -13 2 -18 -2 -16 -14 4 -25
-7 -22 -17 5 -5 14 -4 25 3 29 16 11 39 5 44 -10z m37 -32 c-8 -12 6 -41 16
-34 15 9 49 -6 49 -22 0 -8 6 -14 13 -14 18 -1 43 -40 50 -80 6 -32 5 -33 -8
-16 -8 10 -12 22 -10 27 3 4 0 9 -7 11 -19 7 -58 -3 -58 -14 0 -5 -7 -3 -15 6
-8 8 -15 23 -15 34 0 11 -6 25 -14 31 -17 14 -27 71 -12 72 6 0 5 3 -1 6 -7 2
-13 9 -13 15 0 6 6 6 15 -2 8 -7 13 -16 10 -20z m291 -315 c12 -12 12 -15 2
-16 -7 0 -3 -4 10 -9 31 -13 29 -34 -3 -26 -14 4 -25 2 -25 -3 0 -19 -28 0
-34 22 -4 14 0 26 11 35 21 15 21 15 39 -3z m244 -200 c0 -8 -9 -15 -19 -15
-29 0 -35 18 -9 23 13 2 24 5 26 6 1 0 2 -6 2 -14z m-3590 -46 c10 -18 9 -20
-7 -17 -10 2 -19 11 -21 21 -5 24 15 21 28 -4z m3680 -53 c0 -2 -7 -6 -15 -10
-8 -3 -15 -1 -15 4 0 6 7 10 15 10 8 0 15 -2 15 -4z m27 -82 c-3 -3 -12 -4
-19 -1 -8 3 -5 6 6 6 11 1 17 -2 13 -5z m79 -33 c-4 -5 0 -11 6 -14 9 -3 7 -7
-5 -12 -24 -10 -33 1 -17 20 14 16 25 21 16 6z m101 -92 c14 -14 6 -39 -12
-39 -15 0 -28 27 -19 41 7 12 18 11 31 -2z m-3473 -266 c3 -7 15 -13 26 -13
12 0 19 -4 16 -9 -4 -5 -2 -11 3 -13 6 -1 2 -14 -8 -27 -15 -19 -22 -22 -37
-13 -10 6 -19 14 -19 19 0 4 -2 7 -5 6 -3 -1 -12 -4 -21 -8 -13 -5 -15 -1 -11
20 2 15 11 29 18 32 8 3 12 8 9 12 -2 4 2 8 10 8 8 0 16 -6 19 -14z m4176
-538 c19 -23 8 -25 -14 -4 -11 11 -15 19 -9 19 6 0 16 -7 23 -15z m-160 -55
c0 -5 -7 -10 -16 -10 -8 0 -12 5 -9 10 3 6 10 10 16 10 5 0 9 -4 9 -10z m76 0
c9 0 12 -4 9 -10 -10 -17 -55 -12 -55 6 0 11 5 14 16 10 9 -3 22 -6 30 -6z
m-73 -106 c3 -3 3 -13 0 -21 -5 -12 -7 -12 -14 -1 -15 23 -4 40 14 22z m-4067
-377 c6 -12 33 -62 59 -110 57 -107 91 -187 201 -472 47 -121 97 -247 113
-280 16 -33 43 -94 60 -135 17 -41 69 -142 115 -224 82 -145 84 -150 79 -201
-4 -38 0 -70 15 -116 11 -35 30 -99 41 -142 12 -43 32 -100 46 -127 21 -42 25
-63 25 -142 0 -96 16 -183 41 -230 19 -37 80 -109 164 -193 72 -71 103 -128
135 -245 13 -48 58 -98 113 -127 50 -25 107 -75 107 -92 0 -22 46 -108 81
-153 16 -20 29 -41 29 -46 0 -5 -36 -32 -80 -61 -67 -44 -80 -56 -86 -85 -7
-38 1 -73 23 -97 8 -10 17 -43 20 -75 3 -33 12 -79 20 -104 21 -66 31 -81 121
-174 28 -29 26 -63 -3 -58 -19 3 -50 3 -162 -1 -28 -1 -43 -6 -43 -14 0 -10
-60 -13 -280 -13 -174 0 -280 4 -280 10 0 11 -32 1 -42 -14 -5 -7 -34 -1 -88
18 -64 22 -93 40 -133 79 -76 72 -96 89 -155 128 -28 18 -50 39 -47 46 5 15
-12 26 -45 31 -30 4 -47 24 -60 72 -13 47 -13 94 2 141 9 33 9 42 -5 57 -10
11 -17 40 -19 81 -2 49 -7 67 -21 75 -15 9 -22 6 -43 -19 l-24 -30 -1 35 c-2
95 3 163 21 250 89 449 99 569 77 910 -10 140 -17 338 -18 440 0 102 -5 226
-10 275 -5 50 -12 164 -15 255 -5 150 -4 170 15 224 30 85 26 141 -24 347 -55
222 -53 213 -61 277 -6 54 3 67 22 29z m4379 3 c-3 -5 -11 -10 -16 -10 -6 0
-7 5 -4 10 3 6 11 10 16 10 6 0 7 -4 4 -10z m-55 -10 c0 -5 -2 -10 -4 -10 -3
0 -8 5 -11 10 -3 6 -1 10 4 10 6 0 11 -4 11 -10z m97 -46 c-3 -3 -12 -4 -19
-1 -8 3 -5 6 6 6 11 1 17 -2 13 -5z m33 -25 c0 -18 -2 -20 -15 -9 -13 11 -13
15 -3 21 18 12 18 12 18 -12z m125 11 c-3 -5 -1 -10 6 -10 7 0 10 -2 7 -5 -3
-3 -13 -2 -22 1 -14 5 -15 9 -4 15 17 11 20 11 13 -1z m15 -40 c0 -5 -4 -10
-10 -10 -5 0 -10 5 -10 10 0 6 5 10 10 10 6 0 10 -4 10 -10z m-6985 -3450 c-3
-5 -10 -10 -16 -10 -5 0 -9 5 -9 10 0 6 7 10 16 10 8 0 12 -4 9 -10z m2816
-400 c57 -47 118 -86 152 -99 18 -7 25 -15 21 -23 -5 -7 -2 -9 9 -5 8 3 21 -1
28 -9 9 -11 15 -11 25 -3 8 6 21 9 29 5 19 -7 47 3 39 15 -3 5 -1 9 5 9 5 0
12 -4 16 -10 9 -14 33 -1 41 22 5 15 13 19 35 16 20 -3 29 0 29 9 0 7 10 13
23 14 51 1 80 9 98 25 10 9 19 13 19 8 0 -5 8 0 17 11 12 15 14 16 10 3 -3 -9
0 -19 9 -22 9 -3 12 -1 9 4 -7 11 5 13 44 10 14 -1 21 2 17 9 -5 8 0 8 18 1
14 -5 26 -6 26 -1 0 19 113 -34 143 -67 11 -12 27 -19 40 -17 28 6 108 -39
132 -75 11 -16 29 -33 41 -39 26 -11 38 -47 18 -55 -8 -3 -14 -11 -14 -17 0
-8 4 -8 14 0 12 10 18 7 33 -16 9 -15 22 -31 26 -34 5 -4 2 -11 -8 -16 -15 -9
-15 -11 -1 -16 8 -3 21 -1 28 6 21 20 71 39 77 29 3 -5 14 -12 25 -15 14 -6
17 -3 12 8 -6 16 9 21 18 6 8 -12 63 -19 78 -10 7 4 16 3 21 -4 7 -9 10 -9 14
1 8 20 33 14 43 -10 6 -17 9 -19 9 -6 1 21 31 13 31 -8 0 -16 41 -15 52 1 4 6
8 0 8 -12 0 -13 5 -23 10 -23 6 0 10 4 10 8 0 16 85 7 114 -12 26 -18 27 -21
10 -27 -27 -11 -36 -10 -30 0 3 5 -5 8 -17 7 -18 -1 -23 -6 -19 -19 3 -13 0
-16 -12 -11 -12 4 -15 2 -10 -9 3 -9 13 -13 25 -10 10 3 19 0 19 -6 0 -6 -6
-11 -12 -11 -20 -1 24 -30 44 -30 10 0 18 -4 18 -10 0 -5 7 -10 16 -10 8 0 13
4 9 9 -3 6 13 11 36 13 37 3 43 6 45 28 1 14 -5 33 -14 43 -12 14 -13 17 -1
18 8 0 4 4 -7 9 -12 4 -24 18 -27 29 -6 24 8 29 17 6 5 -15 36 -21 36 -7 0 4
12 7 28 8 15 0 40 4 56 9 25 7 28 6 23 -9 -4 -9 -2 -16 3 -16 6 0 10 7 10 15
0 18 5 18 31 4 17 -9 21 -7 26 10 3 12 7 21 9 21 11 0 74 -35 74 -42 0 -4 11
-2 25 4 16 7 21 14 14 18 -7 5 -6 9 4 13 9 3 25 -3 38 -14 12 -10 18 -19 14
-19 -5 0 -4 -5 3 -12 8 -8 15 -8 26 1 22 18 40 4 21 -16 -24 -24 -14 -49 18
-45 35 4 36 -21 2 -36 -23 -11 -27 -18 -24 -39 1 -5 -16 -13 -37 -20 -37 -11
-37 -12 -10 -12 16 -1 26 -4 23 -8 -4 -3 1 -12 11 -19 16 -12 15 -13 -5 -14
-12 0 -25 -5 -29 -12 -5 -8 -2 -9 10 -5 11 4 15 3 10 -4 -3 -6 -17 -8 -30 -5
-13 4 -24 2 -24 -3 0 -17 -30 0 -31 18 -1 14 -2 14 -6 -1 -2 -10 -11 -18 -19
-18 -22 0 -48 -27 -31 -33 6 -3 2 -4 -10 -4 -27 1 -27 1 -8 21 8 8 11 17 7 20
-13 8 -53 -24 -46 -35 4 -7 -5 -9 -22 -7 -17 2 -35 -3 -42 -12 -12 -13 -13
-13 -8 3 4 13 0 17 -19 17 -18 0 -25 -5 -25 -19 0 -27 -15 -34 -34 -15 -19 18
-13 34 14 34 10 0 22 5 25 10 4 6 11 8 16 5 5 -4 16 -2 25 3 13 7 10 10 -15
15 -33 7 -61 0 -61 -14 0 -5 -8 -9 -17 -9 -15 0 -15 2 -4 9 8 5 11 16 8 25 -7
17 -24 20 -51 10 -14 -5 -13 -9 5 -25 12 -11 18 -19 14 -19 -5 0 -4 -5 3 -12
15 -15 16 -48 2 -48 -5 0 -10 7 -10 16 0 10 -6 14 -15 10 -8 -3 -15 -1 -15 4
0 13 -37 13 -45 1 -3 -5 7 -11 22 -13 17 -2 32 -12 38 -25 5 -13 17 -24 25
-24 11 -1 10 -3 -2 -6 -10 -2 -18 -9 -18 -14 0 -5 -12 -9 -27 -9 -24 -1 -25
-2 -10 -11 18 -11 24 -39 7 -39 -5 0 -10 5 -10 11 0 5 -10 3 -22 -5 -12 -9
-37 -16 -55 -16 -25 0 -31 -4 -27 -15 7 -17 -31 -22 -41 -5 -10 16 -38 12 -31
-5 7 -18 4 -18 -46 -3 -25 7 -37 16 -34 24 3 8 1 16 -4 19 -6 4 -10 0 -11 -7
0 -10 -2 -10 -6 -1 -3 10 -8 10 -19 -1 -8 -8 -26 -24 -40 -35 -14 -11 -23 -25
-19 -31 9 -15 25 -12 25 4 0 17 28 41 37 32 4 -3 -2 -13 -13 -21 -18 -14 -18
-14 4 -15 12 0 22 -4 22 -10 0 -5 -6 -7 -14 -4 -8 3 -17 1 -20 -5 -4 -6 -13
-8 -21 -4 -8 3 -15 0 -15 -7 0 -6 -4 -8 -10 -5 -5 3 -10 1 -10 -6 0 -7 -3 -9
-6 -6 -4 4 -2 13 5 21 15 18 -10 29 -41 16 -21 -8 -21 -9 -3 -10 19 -1 19 -1
2 -14 -18 -14 -18 -14 0 -18 16 -3 16 -5 -4 -16 -21 -11 -23 -10 -23 8 0 25
-29 38 -41 19 -6 -10 -9 -10 -9 -1 0 6 -6 12 -14 12 -8 0 -13 -8 -12 -17 1
-12 -5 -17 -19 -16 -38 5 -60 4 -119 -2 -49 -5 -58 -4 -53 8 4 11 -1 14 -19
13 -16 -1 -24 -7 -24 -18 0 -10 -3 -18 -7 -18 -14 1 -43 27 -43 39 0 6 -11 11
-25 11 -14 0 -25 5 -25 11 0 6 -9 9 -20 6 -11 -3 -23 -1 -26 4 -3 5 -23 9 -45
9 -23 0 -38 4 -34 9 3 6 -3 14 -12 20 -16 9 -14 10 9 11 20 0 26 4 22 15 -4 8
-11 12 -17 8 -6 -4 -8 0 -4 10 3 10 2 17 -2 17 -5 0 -11 6 -14 14 -4 10 6 13
43 10 45 -2 48 -1 43 19 -2 12 -4 27 -4 32 7 79 6 122 -3 134 -6 8 -9 15 -6
16 15 7 -85 75 -109 75 -15 0 -32 5 -38 11 -8 8 -25 9 -50 4 -21 -5 -42 -7
-47 -6 -15 3 -56 -29 -56 -44 0 -8 -6 -15 -13 -15 -19 0 -39 -39 -31 -62 4
-14 3 -18 -6 -13 -8 5 -10 -2 -6 -28 3 -20 1 -39 -4 -42 -7 -4 -6 -13 0 -26 6
-10 7 -19 3 -20 -4 0 1 -4 12 -9 18 -8 18 -9 -5 -10 -28 -1 -60 -21 -60 -38 0
-5 9 -8 20 -5 10 3 18 10 17 15 -1 6 4 13 12 16 10 3 12 0 8 -12 -4 -10 -7
-22 -7 -27 0 -5 -7 -9 -16 -9 -10 0 -14 -6 -10 -15 6 -17 -2 -19 -24 -5 -12 8
-12 10 -1 10 29 0 -4 15 -41 19 -5 1 -8 8 -8 17 0 8 -4 12 -10 9 -5 -3 -10 -2
-10 4 0 5 5 13 10 16 17 10 11 25 -7 18 -11 -5 -14 -3 -8 6 6 10 3 11 -14 2
-20 -11 -21 -9 -21 29 0 34 -3 40 -21 40 -18 0 -19 2 -9 15 9 11 16 13 24 5 5
-5 21 -10 36 -11 l25 0 -22 -11 c-25 -12 -32 -34 -9 -25 8 3 17 1 20 -6 2 -7
5 -4 5 6 1 9 6 17 11 17 15 0 12 16 -6 34 -8 9 -29 16 -45 16 -36 0 -39 14 -3
16 14 1 27 4 29 5 8 9 9 34 1 36 -5 1 -13 7 -17 15 -7 10 -9 10 -9 -3 0 -8 5
-20 12 -27 9 -9 4 -12 -22 -11 -19 1 -26 4 -15 6 17 3 20 10 17 43 -4 35 -7
40 -29 40 -23 0 -23 1 -8 16 15 15 15 18 -4 35 -11 11 -25 19 -31 19 -5 0 -10
4 -10 9 0 5 -9 12 -20 16 -11 3 -19 12 -17 18 1 7 -6 12 -16 12 -10 0 -23 8
-28 18 -6 9 -16 17 -23 17 -8 0 -13 10 -12 23 1 13 -7 27 -19 34 -11 7 -14 12
-7 13 7 0 10 5 7 10 -4 6 -10 8 -14 5 -5 -2 -7 9 -5 25 2 17 -1 30 -6 30 -5 0
-7 6 -4 14 3 8 0 17 -7 22 -8 5 -10 3 -4 -6 5 -8 4 -11 -3 -7 -5 4 -8 17 -4
29 4 16 2 19 -8 13 -10 -6 -12 -4 -7 8 3 10 2 17 -3 17 -5 0 -15 20 -21 45 -6
25 -17 45 -24 45 -7 0 -16 7 -19 16 -4 12 -2 15 9 10 8 -3 15 -1 15 4 0 6 -9
10 -21 10 -11 0 -17 5 -14 10 9 15 19 12 46 -10z m1829 -360 c0 -5 -7 -7 -15
-4 -8 4 -15 8 -15 10 0 2 7 4 15 4 8 0 15 -4 15 -10z m410 0 c0 -16 -44 -30
-52 -17 -4 6 -5 14 -3 17 6 10 55 10 55 0z m5 -70 c3 -5 1 -10 -4 -10 -6 0
-11 5 -11 10 0 6 2 10 4 10 3 0 8 -4 11 -10z m-531 -24 c-3 -9 -12 -12 -22 -9
-15 6 -9 11 25 22 1 1 0 -5 -3 -13z m-1451 -43 c-7 -2 -21 -2 -30 0 -10 3 -4
5 12 5 17 0 24 -2 18 -5z m2007 -27 c0 -11 -19 -15 -25 -6 -3 5 1 10 9 10 9 0
16 -2 16 -4z m-2057 -46 c3 -11 1 -23 -4 -26 -5 -3 -5 -13 1 -25 7 -13 7 -19
0 -19 -10 0 -12 9 -14 63 -2 31 9 36 17 7z m-16 -132 c-3 -8 -6 -5 -6 6 -1 11
2 17 5 13 3 -3 4 -12 1 -19z m91 -45 c2 -8 -5 -13 -18 -13 -12 0 -19 4 -16 9
4 5 0 12 -6 15 -7 3 -2 4 11 3 14 -1 26 -8 29 -14z m72 -87 c0 -3 -4 -8 -10
-11 -5 -3 -10 -1 -10 4 0 6 5 11 10 11 6 0 10 -2 10 -4z m1160 -56 c0 -5 -4
-10 -10 -10 -5 0 -10 5 -10 10 0 6 5 10 10 10 6 0 10 -4 10 -10z m-320 -120
c12 -7 10 -9 -8 -7 -12 0 -22 5 -22 9 0 11 12 10 30 -2z m-2600 -8470 c0 -5
-5 -10 -11 -10 -5 0 -7 5 -4 10 3 6 8 10 11 10 2 0 4 -4 4 -10z m-1095 -89
c-19 -17 -160 -53 -144 -37 7 7 119 44 139 45 8 1 10 -2 5 -8z m-225 -71 c0
-5 -8 -10 -17 -10 -15 0 -16 2 -3 10 19 12 20 12 20 0z m-115 -55 c-16 -7 -34
-10 -39 -7 -12 7 21 21 49 20 15 0 13 -3 -10 -13z"/>
<path d="M15840 10830 c0 -5 5 -10 10 -10 6 0 10 5 10 10 0 6 -4 10 -10 10 -5
0 -10 -4 -10 -10z"/>
<path d="M16951 10575 c-25 -9 -29 -13 -18 -18 9 -3 19 -2 22 3 4 6 15 10 26
10 10 0 19 5 19 10 0 12 -4 11 -49 -5z"/>
<path d="M15117 10555 c6 -32 11 -41 17 -34 2 2 -2 18 -10 34 l-13 30 6 -30z"/>
<path d="M16636 10545 c-3 -8 -1 -15 4 -15 6 0 10 7 10 15 0 8 -2 15 -4 15 -2
0 -6 -7 -10 -15z"/>
<path d="M16435 10510 c-3 -5 1 -10 10 -10 9 0 13 5 10 10 -3 6 -8 10 -10 10
-2 0 -7 -4 -10 -10z"/>
<path d="M16530 10516 c0 -2 7 -6 15 -10 8 -3 15 -1 15 4 0 6 -7 10 -15 10 -8
0 -15 -2 -15 -4z"/>
<path d="M16884 10490 c0 -9 7 -23 15 -31 13 -11 14 -11 8 3 -3 9 -1 19 6 22
9 3 8 5 -1 5 -7 1 -11 5 -8 9 3 5 0 9 -7 9 -7 0 -13 -8 -13 -17z"/>
<path d="M16412 10475 c-47 -16 -55 -28 -27 -41 18 -9 24 -9 22 0 -1 6 8 10
19 9 14 -2 24 4 27 17 7 26 -1 29 -41 15z"/>
<path d="M16790 10480 c0 -4 7 -7 15 -6 23 3 26 12 5 13 -11 1 -20 -2 -20 -7z"/>
<path d="M15190 10440 c0 -13 5 -18 15 -14 8 4 15 10 15 14 0 4 -7 10 -15 14
-10 4 -15 -1 -15 -14z"/>
<path d="M15140 10440 c0 -5 7 -10 15 -10 8 0 15 5 15 10 0 6 -7 10 -15 10 -8
0 -15 -4 -15 -10z"/>
<path d="M15175 10390 c-3 -5 -1 -10 4 -10 6 0 11 5 11 10 0 6 -2 10 -4 10 -3
0 -8 -4 -11 -10z"/>
<path d="M16052 10389 c2 -7 10 -15 17 -17 8 -3 12 1 9 9 -2 7 -10 15 -17 17
-8 3 -12 -1 -9 -9z"/>
<path d="M16486 10315 c-3 -9 0 -15 9 -15 9 0 12 6 9 15 -4 8 -7 15 -9 15 -2
0 -5 -7 -9 -15z"/>
<path d="M15151 10304 c0 -11 3 -14 6 -6 3 7 2 16 -1 19 -3 4 -6 -2 -5 -13z"/>
<path d="M16384 10312 c4 -8 0 -12 -11 -13 -13 -1 -11 -3 6 -8 31 -8 91 -2 91
10 0 5 -13 9 -29 9 -16 0 -37 3 -47 7 -12 4 -15 3 -10 -5z"/>
<path d="M16358 10273 c7 -3 16 -2 19 1 4 3 -2 6 -13 5 -11 0 -14 -3 -6 -6z"/>
<path d="M16288 10263 c6 -2 9 -9 6 -15 -3 -5 3 -18 15 -29 19 -18 32 -13 14
5 -5 4 -9 12 -9 17 -1 5 -2 14 -3 19 0 6 -9 10 -18 9 -11 0 -13 -3 -5 -6z"/>
<path d="M12178 18368 c-21 -6 -38 -16 -38 -23 0 -12 90 -75 106 -75 11 0 171
-129 195 -157 29 -34 199 -116 231 -111 44 6 28 42 -39 91 -51 38 -62 52 -65
79 -2 28 -7 33 -28 33 -42 0 -109 45 -118 79 -7 26 -15 31 -57 41 -28 6 -69
21 -92 33 -47 24 -43 24 -95 10z"/>
<path d="M11940 18219 c0 -4 26 -20 58 -35 60 -27 136 -72 239 -140 34 -23 99
-54 145 -69 46 -15 109 -38 140 -51 58 -24 103 -31 112 -16 11 18 -7 52 -28
52 -11 0 -43 11 -71 24 -27 14 -65 30 -82 37 -18 6 -30 15 -27 20 3 5 -5 9
-18 9 -64 0 -207 66 -240 110 -14 20 -26 26 -44 22 -14 -2 -24 0 -24 7 0 6 -9
11 -21 11 -11 0 -28 4 -37 9 -25 12 -102 20 -102 10z"/>
<path d="M11875 18168 c-22 -5 -48 -10 -57 -11 -35 -3 -21 -44 23 -67 37 -19
135 -93 150 -113 3 -4 39 -17 80 -28 41 -12 87 -28 104 -37 16 -8 72 -26 125
-39 52 -13 118 -30 146 -38 29 -7 80 -22 114 -34 45 -16 66 -19 74 -11 14 14
-30 57 -64 64 -34 6 -133 37 -145 44 -5 4 -16 7 -24 9 -8 1 -17 6 -20 10 -3 5
-28 17 -54 27 -27 10 -51 24 -54 32 -3 8 -11 14 -18 14 -7 0 -25 14 -39 31
-14 17 -26 27 -26 23 0 -4 -10 2 -22 13 -24 21 -30 25 -151 86 -80 40 -81 40
-142 25z"/>
<path d="M12015 17920 c-11 -5 -37 -11 -57 -15 -29 -4 -38 -11 -38 -25 0 -12
14 -27 38 -40 20 -11 54 -31 74 -43 81 -48 158 -87 172 -87 8 0 53 -20 100
-44 47 -24 100 -47 117 -51 17 -4 40 -12 52 -18 25 -13 166 -121 212 -162 35
-31 97 -65 120 -65 8 0 15 -4 15 -9 0 -4 33 -22 73 -40 39 -18 79 -37 87 -42
31 -19 41 -21 75 -15 39 8 101 56 110 87 6 17 14 20 48 17 36 -3 42 0 45 18 2
16 -4 24 -25 29 -15 5 -33 7 -39 6 -6 -1 -19 10 -27 23 -9 13 -31 29 -50 35
-24 8 -43 27 -68 66 -32 52 -71 81 -89 70 -5 -3 -12 1 -17 8 -14 25 -50 37
-115 38 -35 1 -76 7 -93 14 -16 6 -57 22 -90 34 -33 12 -72 29 -87 37 -14 8
-33 14 -41 14 -8 0 -17 7 -20 15 -4 8 -18 14 -34 13 -15 -1 -37 2 -47 7 -15 6
-17 5 -11 -5 5 -9 0 -7 -16 3 -13 9 -32 17 -42 17 -10 0 -31 8 -45 19 -35 24
-112 58 -187 82 -67 21 -72 21 -100 9z"/>
<path d="M16826 17575 c4 -8 8 -15 10 -15 2 0 4 7 4 15 0 8 -4 15 -10 15 -5 0
-7 -7 -4 -15z"/>
<path d="M14210 16520 c0 -5 5 -10 10 -10 6 0 10 5 10 10 0 6 -4 10 -10 10 -5
0 -10 -4 -10 -10z"/>
<path d="M14225 16500 c-11 -5 -14 -9 -7 -9 7 -1 11 -5 8 -10 -6 -9 16 -21 40
-21 22 0 17 21 -7 27 -16 4 -17 8 -7 14 17 11 -1 10 -27 -1z"/>
<path d="M14128 16453 c7 -3 16 -2 19 1 4 3 -2 6 -13 5 -11 0 -14 -3 -6 -6z"/>
<path d="M58 1606 c-26 -19 -22 -29 7 -22 26 7 31 0 16 -23 -5 -8 -18 -12 -30
-8 -12 3 -21 1 -21 -4 0 -11 42 -22 67 -17 14 2 19 14 20 46 3 38 0 42 -20 42
-12 0 -30 -7 -39 -14z"/>
<path d="M13380 1390 c0 -5 7 -10 15 -10 8 0 15 5 15 10 0 6 -7 10 -15 10 -8
0 -15 -4 -15 -10z"/>
<path d="M440 350 c0 -5 5 -10 10 -10 6 0 10 5 10 10 0 6 -4 10 -10 10 -5 0
-10 -4 -10 -10z"/>
<path d="M290 295 c0 -19 30 -19 56 0 18 13 17 14 -18 15 -27 0 -38 -4 -38
-15z"/>
</g>
</svg>
